HIERARCHY
ROOT hip
{
	OFFSET 0.000000 0.000000 0.000000 
	CHANNELS 6 Xposition Yposition Zposition Zrotation Xrotation Yrotation
	JOINT abdomen
	{
		OFFSET 0.000000 3.402643 0.000000 
		CHANNELS 3 Zrotation Xrotation Yrotation
		JOINT chest
		{
			OFFSET 0.000000 8.438565 -0.680529 
			CHANNELS 3 Zrotation Xrotation Yrotation
			JOINT neck
			{
				OFFSET 0.000000 10.207942 -0.272212 
				CHANNELS 3 Zrotation Xrotation Yrotation
				JOINT head
				{
					OFFSET 0.000000 3.130431 0.000000 
					CHANNELS 3 Zrotation Xrotation Yrotation
					End Site
					{
						OFFSET 0.000000 3.130435 0.000000 
					}
				}
			}
			JOINT lCollar
			{
				OFFSET 3.470700 6.669187 -0.816635 
				CHANNELS 3 Zrotation Xrotation Yrotation
				JOINT lShldr
				{
					OFFSET 3.198488 0.000000 0.000000 
					CHANNELS 3 Zrotation Xrotation Yrotation
					JOINT lForeArm
					{
						OFFSET 10.139888 0.000000 0.000000 
						CHANNELS 3 Zrotation Xrotation Yrotation
						JOINT lHand
						{
							OFFSET 8.370511 0.000000 0.000000 
							CHANNELS 3 Zrotation Xrotation Yrotation
							End Site
							{
								OFFSET 4.083176 0.000000 0.000000 
							}
						}
					}
				}
			}
			JOINT rCollar
			{
				OFFSET -3.470700 6.669187 -0.816635 
				CHANNELS 3 Zrotation Xrotation Yrotation
				JOINT rShldr
				{
					OFFSET -3.198488 0.000000 0.000000 
					CHANNELS 3 Zrotation Xrotation Yrotation
					JOINT rForeArm
					{
						OFFSET -10.139888 0.000000 0.000000 
						CHANNELS 3 Zrotation Xrotation Yrotation
						JOINT rHand
						{
							OFFSET -8.370511 0.000000 0.000000 
							CHANNELS 3 Zrotation Xrotation Yrotation
							End Site
							{
								OFFSET -4.083176 0.000000 0.000000 
							}
						}
					}
				}
			}
		}
	}
	JOINT lThigh
	{
		OFFSET 5.308129 -1.633274 1.361059 
		CHANNELS 3 Zrotation Xrotation Yrotation
		JOINT lShin
		{
			OFFSET -2.041588 -20.007561 0.000000 
			CHANNELS 3 Zrotation Xrotation Yrotation
			JOINT lFoot
			{
				OFFSET 0.000000 -19.190928 -1.224953 
				CHANNELS 3 Zrotation Xrotation Yrotation
				End Site
				{
					OFFSET 0.000000 -2.449906 4.627600 
				}
			}
		}
	}
	JOINT rThigh
	{
		OFFSET -5.308129 -1.633274 1.361059 
		CHANNELS 3 Zrotation Xrotation Yrotation
		JOINT rShin
		{
			OFFSET 2.041588 -20.007561 0.000000 
			CHANNELS 3 Zrotation Xrotation Yrotation
			JOINT rFoot
			{
				OFFSET 0.000000 -19.190928 -1.224953 
				CHANNELS 3 Zrotation Xrotation Yrotation
				End Site
				{
					OFFSET 0.000000 -2.449906 4.627600 
				}
			}
		}
	}
}
MOTION
Frames: 6
Frame Time: 0.033333
0.098721 48.135616 0.294119 -0.000000 -0.000010 -0.000000 0.810549 -0.126943 0.245937 -0.332032 -0.117186 -0.059273 -0.126953 -0.000003 -0.000000 1.504322 -1.337428 0.035376 -4.829285 -0.223836 1.848886 -64.167480 16.542908 8.070530 -15.489675 8.105433 -25.870537 5.932204 -0.060074 -3.367898 5.677635 -0.269442 -2.021281 72.939827 15.736414 -10.373324 8.572983 3.593884 19.072248 -6.002441 -0.034738 3.336427 2.678198 -7.547423 0.884877 -2.523500 14.707224 -0.629869 -0.383743 -7.547532 0.336448 -4.624649 -7.325195 -2.335581 1.612117 14.390573 -0.111295 1.808118 -7.670495 -1.088123 
0.201848 48.278667 0.295679 -0.000000 -0.000010 -0.000000 1.777364 -0.273309 0.535825 -0.732430 -0.263650 -0.120558 -0.419922 -0.000003 -0.000000 3.334572 -2.973482 0.173172 -3.746483 -0.176253 1.646866 -53.277527 17.457720 5.344497 -22.627676 15.723927 -32.946064 5.932204 -0.060074 -3.367898 5.677647 -0.269443 -2.011569 72.939827 15.736414 -10.373324 8.572983 3.593884 19.072248 -6.002441 -0.034738 3.336427 2.435314 -6.540624 0.505530 -2.261370 12.587577 -0.463366 -0.638402 -6.444924 0.421391 -4.989239 -6.667500 -4.414093 0.952169 13.182765 0.034978 2.524456 -7.372861 -2.481677 
0.369328 48.442116 0.302633 -0.000000 -0.000010 -0.000000 2.861405 -0.409644 0.880336 -1.093776 -0.390553 -0.183238 -0.888672 -0.000006 -0.000000 5.211581 -4.522322 0.412934 -2.780523 -0.139923 1.472877 -42.758263 18.453341 2.264951 -28.090170 25.509438 -38.655346 5.932204 -0.060074 -3.367898 5.687402 -0.269787 -2.011535 72.939827 15.736414 -10.373324 8.572983 3.593884 19.072248 -6.002441 -0.034738 3.336427 2.117692 -5.297659 0.561304 -1.972844 9.981546 -0.670166 -0.483951 -5.183376 0.587239 -5.738626 -5.528163 -6.509357 0.497049 10.790332 0.131164 3.348363 -6.465920 -5.671888 
0.697498 48.642239 0.323974 -0.000000 -0.000010 -0.000000 4.150534 -0.477265 1.333461 -1.259805 -0.449108 -0.214954 -1.464844 -0.000003 -0.000000 6.928028 -5.622972 0.682117 -2.253819 -0.112384 1.366137 -34.803516 19.555775 -1.316166 -30.914658 35.848186 -42.995552 5.932204 -0.060074 -3.367898 5.687402 -0.269787 -2.011535 72.939827 15.736414 -10.373324 8.572983 3.593884 19.072248 -6.002441 -0.034738 3.336427 1.562346 -3.789236 0.381834 -1.721204 6.900465 -0.567094 -0.274383 -3.590840 0.544819 -6.848669 -4.109009 -8.635338 0.187421 7.870271 0.098080 4.249449 -5.496458 -9.895540 
1.228158 48.866009 0.364200 -0.000000 -0.000010 -0.000000 5.566586 -0.456823 1.871641 -1.152374 -0.410069 -0.193992 -2.099608 -0.000007 -0.000000 8.150620 -6.013313 0.860974 -2.409740 -0.126694 1.395254 -30.950464 20.740885 -5.545990 -30.685318 45.059429 -46.902908 5.932204 -0.060074 -3.367898 5.687402 -0.269787 -2.011535 72.939827 15.736414 -10.373324 8.572983 3.593884 19.072248 -6.002441 -0.034738 3.336427 0.702987 -1.581045 0.069116 -1.384339 2.278417 -0.434729 0.081909 -0.533353 0.594706 -8.239361 -1.816782 -10.714583 -0.019570 3.053909 -0.127089 5.681993 -2.631898 -14.335522 
1.784927 48.983330 0.409833 -0.000000 -0.000010 -0.000000 6.435673 -0.359052 2.227999 -0.839856 -0.302698 -0.141299 -2.724609 -0.000006 -0.000000 7.970114 -5.754798 0.804317 -3.053761 -0.149039 1.521283 -30.107494 21.891056 -10.174175 -27.775976 52.772423 -51.598656 5.932204 -0.060074 -3.367898 5.687402 -0.269787 -2.011535 72.939827 15.736414 -10.373324 8.572983 3.593884 19.072248 -6.002441 -0.034738 3.336427 -0.029172 -0.320639 -0.135801 -1.306476 0.117262 -0.204417 0.258998 0.478108 0.689422 -9.730860 -1.396372 -12.835277 -0.089512 1.040137 -0.202291 6.237993 -1.056032 -18.371849 
